<?xml version="1.0" encoding="UTF-8"?>
<svg width="400" height="160" version="1.1" xmlns="http://www.w3.org/2000/svg">
 <path d="m171.97 12.84-0.54982 0.5534c-2.0239 2.2079-4.599 3.3111-7.5428 3.8631-10.119 2.2079-11.223 6.6244-11.039 10.856v0.73309c4.2318-4.4158 9.3828-7.1734 11.223-7.9094l0.18328 0.36654c-8.6475 4.7837-14.719 13.065-15.639 14.353-8.0956 3.4958-13.616 10.671-13.616 20.423 0 12.695 9.9369 21.343 23.553 21.895v-0.73668c-0.91995-0.18399-1.8406-0.55125-2.5766-1.1032-3.1278-1.6559-5.1532-6.4419-5.1532-19.689 0-12.143 1.4734-17.847 3.3133-20.239 0.91995-1.2879 2.2079-2.2057 3.6798-2.3897v-0.73668c-2.2079 0.18399-4.2332 0.55054-6.0731 1.2865 2.5759-4.2318 3.4966-3.8631 3.4966-3.8631 2.9438 0.18399 5.8899-1.1032 5.8899-1.1032 11.039-3.4958 11.406-16.559 11.406-16.559zm76.172 2.9431c-4.4158 0-8.0963 3.1271-8.0963 7.5429s3.4966 7.5465 8.0963 7.5465c4.4158 0 8.0963-3.1308 8.0963-7.5465s-3.6805-7.5429-8.0963-7.5429zm-225.57 1.4734v0.73668c5.3357 0.91995 7.5429 3.1278 7.5429 11.039v41.21c0 1.2879 7.2e-4 2.3926-0.18327 3.4965 0 0-0.36798 6.9924-8.2796 10.856 0 0 7.7291 1.2879 15.273-2.7598 2.2079-1.1039 4.0478-2.5744 5.5197-4.0463l0.18327-0.18686c4.0478-4.4158 4.5998-9.7515 4.5998-11.039v-37.53c0-8.2796 2.5751-10.119 7.5429-11.039v-0.73668zm258.87 15.639-18.949 5.703v0.5534c0.55197 0.18399 1.2886 0.73524 1.6566 1.1032 1.6559 1.1039 2.5729 2.3911 2.5729 5.703v23.365c0 5.3357-1.2865 6.6244-4.9662 7.1763v0.73668h24.285v-0.73668c-3.3118-0.55197-4.4128-1.8399-4.4128-6.4396v-36.798zm-166.69 0.18327-18.949 5.703v0.5534c0.55197 0.18399 1.2851 0.73524 1.653 1.1032 1.6559 1.1039 2.5766 2.3911 2.5766 5.703v23.369c0 5.3357-1.2865 6.6207-4.9663 7.1727v0.5534h25.575v-0.73668c-3.6798-0.55197-5.7066-2.2057-5.7066-6.9894v-36.066zm87.211 0-18.953 5.703v0.5534c0.55197 0.18399 1.2886 0.73524 1.6566 1.1032 1.8399 1.1039 2.7598 2.2079 2.7598 5.5197v23.365c0 5.3357-1.2865 6.6244-4.9663 7.1763v0.73668h24.285v-0.73668c-3.3118-0.55197-4.4165-1.8399-4.4165-6.4396v-36.798zm53.723 0-19.503 5.703v0.5534c0.55197 0.18399 1.4719 0.91923 1.8399 1.1032 1.6559 1.2879 2.5766 2.5744 2.5766 5.8862v23.186c0 5.3357-1.2865 6.6207-4.9663 7.1727v0.5534h25.023v-0.73668c-3.4958-0.73596-5.1532-1.8406-5.1532-7.1763v-22.811c0-3.8638 0.18614-9.2024 0.37013-13.066zm108.74 0c-12.511 1.2879-22.633 9.5682-22.633 22.815-0.18399 12.695 9.75 21.527 23.365 22.079v-0.73668c-0.91995-0.18399-1.837-0.55125-2.5729-1.1032-3.1278-1.6559-5.1532-6.4419-5.1532-19.689 0-12.143 1.4734-17.847 3.3133-20.239 0.91995-1.2879 2.2079-2.2057 3.6798-2.3897zm-290.34 0.18327c-11.591 1.6559-20.055 10.303-20.055 23.183-0.18399 11.223 6.8091 21.529 20.793 21.529 13.063 0 18.581-10.303 19.869-15.639l-0.54982-0.37013c-2.2079 3.1278-5.7052 5.1532-11.593 5.1532-8.2796 0-13.616-5.335-13.616-16.742 0-10.487 2.2094-15.088 5.1532-16.376zm144.8 0c-6.2557 0-11.959 4.047-14.719 8.4628v0.37013c1.2879-0.55197 2.9446-0.91995 4.4165-0.91995 4.5998-0.18399 6.6229 2.0217 6.6229 6.9894v21.895c0 4.5998-1.2851 5.8877-4.4128 6.4396v0.73668h24.103v-0.73668c-3.4958-0.73596-4.783-1.8406-4.783-7.1763v-23.365c0-7.3596-2.7628-12.696-11.226-12.696zm79.486 0c-6.2557 0-11.959 4.047-14.719 8.4628v0.37013c1.2879-0.55197 2.5736-0.91995 4.2296-0.91995 4.4158-0.18399 5.8899 2.0217 5.8899 6.9894v21.895c0 4.5998-1.2886 5.8877-4.4165 6.4396v0.73668h23.553v-0.73668c-3.3118-0.55197-4.2332-1.8399-4.2332-6.4396v-24.103c0-7.3596-2.0232-12.696-10.303-12.696zm27.229 0c-6.2557 0-11.959 4.047-14.719 8.4628v0.37013c1.2879-0.55197 2.5773-0.91995 4.2332-0.91995 4.4158-0.18399 5.8862 2.0217 5.8862 6.9894v21.895c0 4.5998-1.2851 5.8877-4.4128 6.4396v0.73668h24.285v-0.73668c-3.4958-0.73596-4.9662-1.8406-4.9662-7.1763v-23.365c0-7.3596-2.0268-12.696-10.306-12.696zm41.032 0v0.73668c0.91995 0.18399 1.6566 0.36798 2.5766 0.91995 3.1278 1.6559 4.9662 6.4382 4.9662 19.685 0 12.143-1.2865 17.847-3.1264 20.239-0.91995 1.4719-2.5759 2.3926-3.6798 2.5766v0.73668c12.695-1.4719 22.629-9.5682 22.629-22.815 0-12.695-9.934-21.527-23.365-22.079zm-290.52 0.18327v0.73668c2.7598 0.73596 3.866 6.4411 4.05 12.513l-8.6497 1.2865v0.73668h21.529c0-7.9116-5.1539-14.905-16.929-15.273zm50.597 0c-4.4158 0-8.6453 3.8667-9.7493 7.5465v0.36654c1.2879-2.2079 2.7591-2.7598 3.863-2.7598 0.36798 0 0.73668 0.18327 0.73668 0.18327-0.73596 0.91995-1.2901 2.5773-1.2901 4.2332 0 3.8638 2.9453 6.6229 6.9931 6.6229 4.5998 0 7.9094-3.3126 7.9094-8.0963 0-4.9677-3.1271-8.0963-8.4628-8.0963zm33.118 0v0.55341h0.18327c0.91995 0.18399 1.6566 0.36798 2.5766 0.91995 3.1278 1.6559 4.9699 6.4382 4.9699 19.685 0 12.143-1.2901 17.847-3.13 20.239-0.91995 1.4719-2.5759 2.3926-3.6798 2.5766v0.73668c12.695-1.4719 22.633-9.5682 22.633-22.815 0-12.695-9.9369-21.343-23.553-21.895zm-141.48 33.405c-1.5061 0.0173-3.0401 0.47219-4.42 1.3691-3.6798 2.3919-5.1517 6.9924-2.7598 10.856 2.3919 3.8638 7.1727 4.5983 10.852 2.2064 3.8638-2.5759 5.1517-7.1727 2.7598-10.852-1.4949-2.4149-3.9223-3.6079-6.4325-3.5792zm248.75 18.112c-4.4158 0-8.0963 3.1308-8.0963 7.5465s3.4966 7.5429 8.0963 7.5429c4.4158 0 8.0963-3.1271 8.0963-7.5429s-3.6805-7.5465-8.0963-7.5465zm-213.98 1.4734v0.73668c2.9438 0.36798 6.0717 1.8392 8.2796 3.8631 2.5759 2.2079 4.4158 5.3342 6.4396 9.566l20.609 46.185v-0.18686l0.36654 0.18686 8.4628-21.895-1.8399-3.863-15.269-34.592zm55.751 0-12.33 31.462 1.6566 3.8631 11.039-28.702 1.4734 42.134c0.36798 7.7276-2.9431 9.5667-7.5428 10.303v0.73668h32.564v-0.73668c-5.1517-0.73596-7.3581-2.9424-7.7261-11.406l-1.4734-35.878c-0.36798-8.2796 2.2071-10.303 7.5428-11.039v-0.73668h-25.023zm130.82 5.3364-18.583 15.639v1.6566h4.783v25.759c0 9.7515 6.0709 12.326 13.063 12.326 7.5436 0 13.985-5.1525 16.009-9.0162v-0.31983c-1.3438 0.36643-3.9549 0.87323-6.2564 0.87323-4.9677 0-7.7298-2.3941-7.7298-7.7298v-21.891h12.513l0.91995-5.5197h-13.433v-11.226zm15.273 46.044c0.0528-0.0144 0.1345-0.0328 0.18326-0.0467h-0.18326zm-190.61-38.502-2.2064 30.542c-0.36798 3.1278-0.92138 5.3372-1.4734 6.9931-0.73596 1.2879-1.4698 2.5759-2.3897 3.6798-0.18399 0-0.18327 0.18327-0.18327 0.18327-0.36798 0.36798-0.55197 0.73596-0.91995 0.91995-2.2079 2.3919-4.6005 3.4943-8.0963 4.0463v0.73668h26.863v-0.73668c-3.4958-0.36798-6.0717-1.4705-8.2796-4.0463-2.0239-2.2079-2.5766-5.8892-2.5766-9.7529l1.6566-27.598zm235.88 2.7598-18.953 5.5197v0.5534c0.55197 0.18399 1.2886 0.73525 1.6566 1.1032 1.6559 1.1039 2.5766 2.3911 2.5766 5.703v23.365c0 5.3357-1.2901 6.6244-4.9699 7.1764v0.73667h24.289v-0.73667c-3.1278-0.36798-4.4165-1.6566-4.4165-6.2564v-36.798zm-102.11 0.18327-18.953 5.703v0.5534c0.55197 0.18399 1.2886 0.73524 1.6566 1.1032 1.6559 1.1039 2.5766 2.3911 2.5766 5.703v23.369c0 5.3357-1.2901 6.6244-4.9699 7.1763v0.73309h25.575v-0.73309c-3.6798-0.55197-5.703-2.3933-5.703-6.9931v-36.244zm-39.742 0.18327c-4.9677 0-10.672 2.2108-14.536 4.7867v0.36654c8.6475 0 14.166 2.0246 14.166 9.0162v19.503c0 7.1756 3.3133 11.039 9.753 11.039 6.0717 0 9.5682-3.4951 10.856-6.6229v-0.26593c-0.55979 0.3297-1.3782 0.63247-2.2101 0.63247-2.2079 0-3.4965-1.1025-3.4965-4.0463v-21.159c0-8.0956-4.0448-13.249-14.532-13.249zm20.239 37.823c0.0593-0.0349 0.13043-0.069 0.18327-0.10421h-0.18327zm31.462-37.823c-4.4158 0-8.649 3.8667-9.7529 7.5465v0.36654c1.1039-2.0239 2.5751-2.5766 3.863-2.5766 0.36798 0 0.73668 0.18327 0.73668 0.18327-0.73596 0.91995-1.2865 2.5773-1.2865 4.2332 0 3.8638 2.9416 6.6229 6.9894 6.6229 4.5998 0 7.913-3.3126 7.913-8.0963 0-5.1517-3.3111-8.2796-8.4628-8.2796zm64.763 0-19.503 5.5197v0.55341c0.55197 0.18399 1.4719 0.91923 1.8399 1.1032 1.6559 1.2879 2.5766 2.5781 2.5766 5.8899v23.183c0 5.3357-1.2901 6.6244-4.9699 7.1764v0.73309h25.026v-0.73309c-3.4958-0.73596-5.1532-1.8406-5.1532-7.1764v-22.815c0-3.8638 0.18252-9.1988 0.36654-13.063zm42.134 0c-6.2557 0-11.959 4.0507-14.719 8.4665v0.36654c1.2879-0.55197 2.9446-0.91995 4.4165-0.91995 4.4158 0 6.4396 2.0254 6.4396 6.9931v21.891c0 4.5998-1.2886 5.8877-4.4165 6.4396v0.73667h24.103v-0.73667c-3.1278-0.55197-4.5998-1.837-4.5998-7.1727v-23.369c0-7.3596-2.7591-12.696-11.223-12.696zm33.484 0c-9.1995 0.91995-15.452 6.2557-15.452 13.799 0 7.9116 5.703 11.778 11.223 14.906 4.9677 2.9438 9.3828 5.335 9.3828 9.3828 0 3.6798-2.0232 5.3335-4.783 6.0695v0.55341c10.303-0.73596 16.742-5.8862 16.742-15.086 0.18399-6.2557-5.3364-10.306-11.776-13.986-4.4158-2.7598-9.3828-5.1502-9.3828-9.566 0-3.3118 2.2064-4.7845 4.0463-5.3364zm2.9468 0v0.73668c4.5998 0.91995 9.7493 7.7283 11.589 13.616h0.73668l-0.55341-12.696c-1.6559-0.55197-7.3567-1.6566-11.772-1.6566zm-209.05 6.9822c-1.1061 0-2.2425 0.30977-3.2772 0.93073-2.7598 1.6559-3.8631 4.9663-2.0232 7.7261 1.6559 2.7598 5.1495 3.3126 7.9094 1.6566s3.6791-4.9663 2.0232-7.7261c-1.0349-1.7249-2.7886-2.5873-4.6321-2.5873zm11.442 13.627c-4.2318 1.1039-14.536 3.4936-16.376 4.2296s-4.4165 3.8645-4.4165 9.0162c0 5.8877 3.6805 10.673 10.856 10.673 6.0717 0 10.12-4.7852 10.856-6.9931v-0.18328c-0.55197 0.36798-1.8392 0.73668-2.9431 0.73668-2.7598 0-4.05-1.8414-4.05-7.913 0-2.2079 0.5534-4.4143 1.4734-5.8862 0.91995-1.2879 3.1278-2.2071 4.5998-2.9431zm178.84 7.9094 0.5534 13.616c2.5759 1.1039 8.6475 2.5766 12.879 2.5766v-0.5534c-4.0478-1.2879-10.856-9.3835-12.696-15.639zm-245.63 15.826-0.18327 0.18328h0.18327z" fill="#0f386c"/>
</svg>