<?xml version="1.0" encoding="UTF-8" standalone="no"?>
<svg
   id="Capa_1"
   version="1.1"
   viewBox="0 0 999.99996 413.75398"
   xml:space="preserve"
   width="1000"
   height="413.754"
   xmlns="http://www.w3.org/2000/svg"
   xmlns:svg="http://www.w3.org/2000/svg"><!-- Generator: Adobe Illustrator 29.1.0, SVG Export Plug-In . SVG Version: 2.1.0 Build 142)  --><defs
     id="defs1" /><path
     id="path1"
     style="fill:#603d8f;fill-opacity:1;stroke-width:1.70317"
     class="st0"
     d="m 128.58052,186.7007 c -1.54074,0.0835 -3.05214,0.26067 -4.50409,0.52892 -15.6692,2.91242 -16.73954,17.56052 -18.13614,30.62386 -0.3747,3.47447 -0.53038,6.98406 -0.326,10.45854 2.92946,51.18036 -8.090343,111.3704 -0.27277,160.81353 3.44041,21.76655 34.16859,32.73353 47.70882,13.40251 7.11927,-10.16795 3.91504,-19.7225 4.49411,-31.23595 2.1971,-44.18032 1.41364,-88.46137 0,-132.62466 -0.3236,-9.84434 1.94189,-30.30051 -1.43039,-38.13511 C 151.65813,190.17491 139.3657,186.116 128.58052,186.7007 Z m 264.90004,25.8603 c -0.87089,0.0309 -1.75001,0.0974 -2.63459,0.1996 -19.50134,2.26522 -24.11668,19.05956 -25.27484,36.00614 -2.50367,36.78855 -0.37628,84.01915 1.34392,121.28459 0.34064,7.35771 1.0046,23.77404 3.13357,30.04172 h -0.0166 c 5.8589,17.18502 37.70824,15.70445 46.41148,1.65327 5.10952,-8.24336 2.3871,-29.92623 2.72773,-40.67325 1.26035,-40.31412 4.06978,-87.64305 0.0333,-127.5484 -1.40512,-13.92345 -12.66052,-21.4276 -25.72391,-20.96367 z m -112.47598,2.35849 c -16.46331,0.1618 -33.08974,2.89301 -44.26256,7.12539 -32.93937,12.46724 -54.73933,50.32638 -34.23312,82.70371 13.50617,21.28967 40.46834,25.03773 62.26896,33.4514 9.69106,3.72995 28.88342,10.2519 18.40891,23.46853 -8.03898,10.15091 -32.73406,6.7302 -44.17939,3.57932 -15.70326,-4.32605 -32.37746,-21.13625 -46.97366,-4.12155 -8.05601,9.40152 -7.20376,25.35879 1.95931,33.8406 20.26777,18.75194 77.93816,20.49105 102.71934,12.12847 l -0.0166,-0.0366 c 42.25573,-14.23853 61.21233,-66.08126 16.87872,-90.91353 -16.70813,-9.36745 -38.49227,-12.79229 -53.76973,-21.51254 -15.87357,-9.06089 -12.3335,-27.8288 4.64714,-30.84342 17.66191,-3.15087 31.91841,3.89841 46.9404,3.6259 23.21425,-0.42579 31.15157,-33.73814 12.89355,-44.21266 -10.5171,-6.03775 -26.81793,-8.44481 -43.28123,-8.28301 z m 612.75993,0.78838 c -62.55738,4.43799 -105.4826,65.46335 -82.67711,133.85215 22.77144,68.28023 124.73977,88.24168 167.93225,29.65251 37.84445,-51.33365 24.35685,-134.53473 -39.3759,-156.93147 -15.96087,-5.6077 -31.44292,-7.59733 -45.87924,-6.57319 z m -317.9346,0.30604 c -24.50228,0.30433 -49.71391,12.6313 -62.86773,33.4015 -3.01461,0.56205 -1.54803,-1.34857 -1.92272,-3.1369 -2.04381,-9.50371 -2.92986,-17.3705 -10.6282,-24.48977 -9.74215,-9.02682 -26.38216,-6.65928 -35.34085,2.69114 -5.7397,5.99517 -7.06858,13.69392 -7.64766,21.69884 -3.25306,44.98081 2.57179,93.8116 0,139.20117 l 0.0166,0.0333 c 3.62776,34.59145 44.93144,35.81733 53.29402,0.86821 8.54993,-35.64743 -19.7081,-102.52998 25.22162,-122.81478 16.28234,-7.34067 34.57481,-5.22874 45.11746,9.79325 19.19476,27.37 5.60543,81.4258 9.28429,113.24108 3.21899,27.88095 39.29102,35.06954 49.86773,10.59493 9.14604,-21.15341 1.80589,-64.56543 2.24871,-88.35877 0.4258,-23.00987 8.54808,-36.85681 30.0251,-45.27049 18.17286,-7.11926 36.00655,-3.73102 45.35697,14.66326 10.33827,20.31886 6.31837,66.50892 6.40353,90.69399 0.017,7.90272 -1.61695,15.19072 0.23951,23.91097 3.47448,16.33343 24.83081,24.33993 38.95012,15.26202 10.23607,-6.55722 13.62658,-22.73696 14.42707,-34.0801 1.75427,-24.8493 0.88379,-65.60731 -1.48362,-90.50771 -3.1679,-33.14376 -26.02382,-63.8521 -60.63231,-66.98594 -33.51846,-3.04868 -57.58311,11.00157 -74.13795,39.06987 -0.73237,1.24331 0.0169,1.70317 -2.26536,1.70317 -5.41609,0.017 -10.06535,-13.72558 -13.64201,-18.39228 -12.19793,-15.99067 -30.82704,-23.02662 -49.88436,-22.78993 z m 320.67565,46.66098 c 39.10405,-2.66255 63.43855,36.1372 50.1538,73.29301 -22.00501,61.5016 -114.77701,17.0324 -85.72087,-47.43272 4.41122,-9.81028 16.72464,-22.54842 27.55682,-24.76254 2.73147,-0.55887 5.40331,-0.92026 8.01025,-1.09775 z" /><path
     id="path6"
     class="st1"
     d="m 158.71539,0.00693546 c -3.03475,0.046238 -5.96736,0.3237352 -8.69883,0.8283022 h -0.0166 c -6.91488,1.27738004 -13.65998,7.90299104 -16.2999,14.32395534 -10.23607,24.883366 -14.8353,93.215347 -11.32677,119.904077 1.63505,12.48427 7.88557,23.68915 20.72749,14.56014 20.42101,-14.51104 61.00844,-90.436782 62.13253,-115.320148 1.073,-23.620888 -25.27473,-34.61999614 -46.51792,-34.29632654 z M 34.327161,55.087302 C 25.085616,55.411471 15.344095,60.07973 9.1488005,66.051482 0.46261551,74.431096 -2.3653175,81.618889 2.0799645,93.285623 8.3817075,109.8575 51.421436,159.38513 67.346108,167.11754 c 10.951406,5.3139 16.742329,2.8592 16.742329,-10.27227 C 84.071406,136.81595 64.891542,72.641699 49.545949,59.850866 45.234791,56.261428 39.87209,54.892802 34.327161,55.087302 Z M 268.59668,101.26592 c -5.72574,-0.26026 -11.97051,1.62893 -18.63842,5.91454 -14.63028,9.40152 -34.96363,27.6767 -46.80069,40.58676 v -0.0166 c -8.54993,9.33338 -35.75174,39.77017 -6.44012,38.98671 15.63513,-0.40877 47.04112,-10.95155 62.04608,-17.16813 22.20938,-9.19714 49.70033,-21.3075 33.70753,-50.21035 -6.22723,-11.25159 -14.33144,-17.65912 -23.87438,-18.0929 z"
     style="fill:#a4c155;fill-opacity:1;stroke-width:1.70317" /></svg>
